<svg width="20" height="19" viewBox="0 0 20 19" fill="none" xmlns="http://www.w3.org/2000/svg">
<g id="carbon:delete">
<path id="Vector" d="M7.625 7.25H8.8125V14H7.625V7.25ZM11.1875 7.25H12.375V14H11.1875V7.25Z" fill="#CF1212"/>
<path id="Vector_2" d="M2.875 3.875V5H4.0625V16.25C4.0625 16.5484 4.18761 16.8345 4.41031 17.0455C4.63301 17.2565 4.93506 17.375 5.25 17.375H14.75C15.0649 17.375 15.367 17.2565 15.5897 17.0455C15.8124 16.8345 15.9375 16.5484 15.9375 16.25V5H17.125V3.875H2.875ZM5.25 16.25V5H14.75V16.25H5.25ZM7.625 1.625H12.375V2.75H7.625V1.625Z" fill="#CF1212"/>
</g>
</svg>
