<svg width="16" height="17" viewBox="0 0 16 17" fill="none" xmlns="http://www.w3.org/2000/svg">
<g id="settings" clip-path="url(#clip0_298_1456)">
<path id="Vector" d="M8 10.8447C9.10457 10.8447 10 9.9493 10 8.84473C10 7.74016 9.10457 6.84473 8 6.84473C6.89543 6.84473 6 7.74016 6 8.84473C6 9.9493 6.89543 10.8447 8 10.8447Z" stroke="black" stroke-linecap="round" stroke-linejoin="round"/>
<path id="Vector_2" d="M12.9334 10.8447C12.8446 11.0458 12.8181 11.2688 12.8573 11.4851C12.8966 11.7013 12.9997 11.9009 13.1534 12.058L13.1934 12.098C13.3173 12.2218 13.4157 12.3689 13.4828 12.5308C13.5499 12.6926 13.5844 12.8661 13.5844 13.0414C13.5844 13.2166 13.5499 13.3901 13.4828 13.5519C13.4157 13.7138 13.3173 13.8609 13.1934 13.9847C13.0695 14.1087 12.9225 14.207 12.7606 14.2741C12.5987 14.3412 12.4252 14.3757 12.25 14.3757C12.0748 14.3757 11.9013 14.3412 11.7394 14.2741C11.5776 14.207 11.4305 14.1087 11.3067 13.9847L11.2667 13.9447C11.1096 13.791 10.91 13.6879 10.6937 13.6487C10.4775 13.6095 10.2544 13.6359 10.0534 13.7247C9.85617 13.8092 9.68801 13.9495 9.56956 14.1284C9.45111 14.3072 9.38754 14.5168 9.38669 14.7314V14.8447C9.38669 15.1983 9.24621 15.5374 8.99616 15.7875C8.74611 16.0375 8.40698 16.178 8.05335 16.178C7.69973 16.178 7.36059 16.0375 7.11054 15.7875C6.8605 15.5374 6.72002 15.1983 6.72002 14.8447V14.7847C6.71486 14.564 6.64343 14.35 6.51503 14.1705C6.38662 13.991 6.20718 13.8542 6.00002 13.778C5.79894 13.6893 5.57589 13.6628 5.35963 13.702C5.14336 13.7412 4.94381 13.8443 4.78669 13.998L4.74669 14.038C4.62286 14.162 4.4758 14.2603 4.31394 14.3274C4.15208 14.3945 3.97857 14.4291 3.80335 14.4291C3.62813 14.4291 3.45463 14.3945 3.29277 14.3274C3.1309 14.2603 2.98385 14.162 2.86002 14.038C2.73605 13.9142 2.63771 13.7671 2.57061 13.6053C2.50351 13.4434 2.46897 13.2699 2.46897 13.0947C2.46897 12.9195 2.50351 12.746 2.57061 12.5841C2.63771 12.4222 2.73605 12.2752 2.86002 12.1514L2.90002 12.1114C3.05371 11.9542 3.15681 11.7547 3.19602 11.5384C3.23524 11.3221 3.20876 11.0991 3.12002 10.898C3.03551 10.7008 2.89519 10.5327 2.71633 10.4142C2.53747 10.2958 2.32788 10.2322 2.11335 10.2314H2.00002C1.6464 10.2314 1.30726 10.0909 1.05721 9.84083C0.807163 9.59078 0.666687 9.25164 0.666687 8.89802C0.666687 8.5444 0.807163 8.20526 1.05721 7.95521C1.30726 7.70516 1.6464 7.56469 2.00002 7.56469H2.06002C2.28068 7.55952 2.49469 7.4881 2.67422 7.35969C2.85375 7.23129 2.9905 7.05184 3.06669 6.84469C3.15543 6.64361 3.1819 6.42056 3.14269 6.20429C3.10348 5.98803 3.00038 5.78847 2.84669 5.63135L2.80669 5.59135C2.68272 5.46752 2.58437 5.32047 2.51727 5.15861C2.45017 4.99674 2.41564 4.82324 2.41564 4.64802C2.41564 4.4728 2.45017 4.2993 2.51727 4.13743C2.58437 3.97557 2.68272 3.82852 2.80669 3.70469C2.93052 3.58072 3.07757 3.48237 3.23943 3.41527C3.4013 3.34817 3.5748 3.31364 3.75002 3.31364C3.92524 3.31364 4.09874 3.34817 4.26061 3.41527C4.42247 3.48237 4.56952 3.58072 4.69335 3.70469L4.73335 3.74469C4.89047 3.89838 5.09003 4.00148 5.30629 4.04069C5.52256 4.0799 5.74561 4.05343 5.94669 3.96469H6.00002C6.1972 3.88018 6.36536 3.73986 6.48382 3.561C6.60227 3.38214 6.66583 3.17254 6.66669 2.95802V2.84469C6.66669 2.49106 6.80716 2.15193 7.05721 1.90188C7.30726 1.65183 7.6464 1.51135 8.00002 1.51135C8.35364 1.51135 8.69278 1.65183 8.94283 1.90188C9.19288 2.15193 9.33335 2.49106 9.33335 2.84469V2.90469C9.33421 3.11921 9.39777 3.3288 9.51622 3.50766C9.63468 3.68652 9.80284 3.82684 10 3.91135C10.2011 4.0001 10.4241 4.02657 10.6404 3.98736C10.8567 3.94814 11.0562 3.84504 11.2134 3.69135L11.2534 3.65135C11.3772 3.52738 11.5242 3.42904 11.6861 3.36194C11.848 3.29484 12.0215 3.2603 12.1967 3.2603C12.3719 3.2603 12.5454 3.29484 12.7073 3.36194C12.8691 3.42904 13.0162 3.52738 13.14 3.65135C13.264 3.77518 13.3623 3.92223 13.4294 4.0841C13.4965 4.24596 13.5311 4.41947 13.5311 4.59469C13.5311 4.76991 13.4965 4.94341 13.4294 5.10527C13.3623 5.26714 13.264 5.41419 13.14 5.53802L13.1 5.57802C12.9463 5.73514 12.8432 5.9347 12.804 6.15096C12.7648 6.36722 12.7913 6.59027 12.88 6.79135V6.84469C12.9645 7.04187 13.1048 7.21003 13.2837 7.32848C13.4626 7.44693 13.6722 7.5105 13.8867 7.51135H14C14.3536 7.51135 14.6928 7.65183 14.9428 7.90188C15.1929 8.15193 15.3334 8.49106 15.3334 8.84469C15.3334 9.19831 15.1929 9.53745 14.9428 9.78749C14.6928 10.0375 14.3536 10.178 14 10.178H13.94C13.7255 10.1789 13.5159 10.2424 13.337 10.3609C13.1582 10.4793 13.0179 10.6475 12.9334 10.8447V10.8447Z" stroke="black" stroke-linecap="round" stroke-linejoin="round"/>
</g>
<defs>
<clipPath id="clip0_298_1456">
<rect width="16" height="16" fill="white" transform="translate(0 0.844727)"/>
</clipPath>
</defs>
</svg>
